# xmcd CD database file
#
# Track frame offsets:
#	150
#	8030
#	19120
#	35750
#	51832
#	65162
#	72127
#	80705
#	90942
#	103800
#	113937
#	129642
#
# Disc length: 1868 seconds
#
# Revision: 2
# Processed by: cddbd v1.5.2PL0 Copyright (c) Steve Scherf et al.
# Submitted via: CDex 1.70beta2
#
DISCID=a2074a0c
DTITLE=Laughin' Nose - If You Don't Mind Please Laugh.
DYEAR=1995
DGENRE=Rock
TTITLE0=Warzone
TTITLE1=Crunky Daughnut
TTITLE2=Abortion
TTITLE3=No Fear
TTITLE4=Basement Club
TTITLE5=Fill My Head
TTITLE6=Fall Out
TTITLE7=Frustration
TTITLE8=Baby Go
TTITLE9=Thirty
TTITLE10=Rise a Gulliver
TTITLE11=Lets Rock
EXTD=YEAR: 1995
EXTT0=
EXTT1=
EXTT2=
EXTT3=
EXTT4=
EXTT5=
EXTT6=
EXTT7=
EXTT8=
EXTT9=
EXTT10=
EXTT11=
PLAYORDER=
